<svg width="1600" height="430" viewBox="0 0 1600 430" fill="none" xmlns="http://www.w3.org/2000/svg">
<path d="M0 89.6789H1600.12V430H0V89.6789Z" fill="#92400E"/>
<path d="M270 105.59C270 163.905 209.558 211.179 135 211.179C60.4416 211.179 0 163.905 0 105.59C0 47.274 60.4416 0 135 0C209.558 0 270 47.274 270 105.59Z" fill="#92400E"/>
<path d="M540 105.59C540 163.905 479.559 211.179 405 211.179C330.442 211.179 270 163.905 270 105.59C270 47.274 330.442 0 405 0C479.559 0 540 47.274 540 105.59Z" fill="#92400E"/>
<path d="M810 105.59C810 163.905 749.559 211.179 675 211.179C600.442 211.179 540 163.905 540 105.59C540 47.274 600.442 0 675 0C749.559 0 810 47.274 810 105.59Z" fill="#92400E"/>
<path d="M1080 105.59C1080 163.905 1019.56 211.179 945 211.179C870.442 211.179 810 163.905 810 105.59C810 47.274 870.442 0 945 0C1019.56 0 1080 47.274 1080 105.59Z" fill="#92400E"/>
<path d="M1350 105.59C1350 163.905 1289.56 211.179 1215 211.179C1140.44 211.179 1080 163.905 1080 105.59C1080 47.274 1140.44 0 1215 0C1289.56 0 1350 47.274 1350 105.59Z" fill="#92400E"/>
<path d="M1620 105.59C1620 163.905 1559.56 211.179 1485 211.179C1410.44 211.179 1350 163.905 1350 105.59C1350 47.274 1410.44 0 1485 0C1559.56 0 1620 47.274 1620 105.59Z" fill="#92400E"/>
</svg>
