<svg width="551" height="216" viewBox="0 0 551 216" fill="none" xmlns="http://www.w3.org/2000/svg">
<path d="M513.804 78.8481L464.864 127.788M487.54 105.113L488.383 104.432C489.201 103.723 489.942 102.928 490.593 102.06C495.651 95.316 494.284 85.7486 487.54 80.6906L486.697 81.371C485.879 82.0804 485.138 82.8755 484.487 83.7433C479.429 90.4872 480.796 100.055 487.54 105.113ZM487.54 105.113L488.22 105.956C488.93 106.774 489.725 107.515 490.593 108.165C497.337 113.223 506.904 111.857 511.962 105.113L511.281 104.27C510.572 103.452 509.777 102.711 508.909 102.06C502.165 97.002 492.598 98.3687 487.54 105.113ZM499.751 92.9016L500.594 92.2213C501.412 91.5118 502.153 90.7167 502.803 89.849C507.862 83.105 506.495 73.5376 499.751 68.4796L498.908 69.16C498.09 69.8694 497.349 70.6645 496.698 71.5323C491.64 78.2762 493.007 87.8436 499.751 92.9016ZM499.751 92.9016L500.431 93.7447C501.141 94.5627 501.936 95.3036 502.804 95.9544C509.548 101.012 519.115 99.6455 524.173 92.9016L523.492 92.0585C522.783 91.2406 521.988 90.4997 521.12 89.8488C514.376 84.7909 504.809 86.1577 499.751 92.9016ZM511.962 80.6906L512.805 80.0103C513.623 79.3008 514.364 78.5057 515.014 77.638C520.072 70.894 518.706 61.3266 511.962 56.2686L511.119 56.949C510.301 57.6584 509.56 58.4535 508.909 59.3213C503.851 66.0652 505.218 75.6326 511.962 80.6906ZM511.962 80.6906L512.642 81.5337C513.352 82.3517 514.147 83.0926 515.015 83.7434C521.758 88.8013 531.326 87.4345 536.384 80.6906L535.703 79.8475C534.994 79.0296 534.199 78.2887 533.331 77.6378C526.587 72.5799 517.02 73.9467 511.962 80.6906ZM475.04 117.613L475.883 116.932C476.701 116.223 477.442 115.428 478.093 114.56C483.151 107.816 481.784 98.2486 475.04 93.1906L474.197 93.871C473.379 94.5804 472.638 95.3755 471.987 96.2433C466.929 102.987 468.296 112.555 475.04 117.613ZM475.04 117.613L475.72 118.456C476.43 119.274 477.225 120.015 478.093 120.665C484.837 125.723 494.404 124.357 499.462 117.613L498.781 116.77C498.072 115.952 497.277 115.211 496.409 114.56C489.665 109.502 480.098 110.869 475.04 117.613ZM523.88 73.0922C522.806 73.2456 521.72 73.2839 520.64 73.2072L519.563 73.092C518.371 64.7469 524.169 57.0154 532.515 55.8232C533.946 55.6187 535.4 55.6187 536.832 55.8232C538.024 64.1685 532.225 71.9 523.88 73.0922Z" stroke="#F59E0B" stroke-width="2"/>
<path d="M140.881 119.7C150.481 121.1 157.948 122.867 163.281 125C168.681 127.133 172.448 129.8 174.581 133C176.715 136.267 177.781 140.3 177.781 145.1C177.781 154.1 173.581 161.433 165.181 167.1C156.781 172.767 144.848 175.6 129.381 175.6C117.581 175.6 108.048 174.7 100.781 172.9C93.5812 171.1 88.3145 168.6 84.9812 165.4C81.6478 162.267 79.9812 158.633 79.9812 154.5C79.9812 148.9 82.1478 144.567 86.4812 141.5C90.8812 138.5 98.1145 136.433 108.181 135.3V136.3C105.781 136.967 103.915 138.133 102.581 139.8C101.315 141.533 100.681 143.533 100.681 145.8C100.681 154.067 103.181 160.7 108.181 165.7C113.181 170.767 120.581 173.3 130.381 173.3C135.648 173.3 140.015 172.767 143.481 171.7C146.948 170.633 149.548 169 151.281 166.8C153.015 164.6 153.881 161.8 153.881 158.4C153.881 155.6 153.081 153.167 151.481 151.1C149.948 149.033 147.115 147.233 142.981 145.7C138.915 144.167 133.148 142.733 125.681 141.4C117.615 139.933 111.181 138.4 106.381 136.8C101.581 135.267 98.1145 133.367 95.9812 131.1C93.8478 128.833 92.7812 125.9 92.7812 122.3C92.7812 118.967 93.6478 116.033 95.3812 113.5C97.1812 110.9 100.081 108.733 104.081 107C108.148 105.2 113.581 103.933 120.381 103.2L120.481 103.9C119.415 104.167 118.415 104.767 117.481 105.7C116.615 106.633 116.181 107.8 116.181 109.2C116.181 110.667 116.781 111.933 117.981 113C119.248 114.067 121.648 115.133 125.181 116.2C128.715 117.2 133.948 118.367 140.881 119.7ZM142.581 40.7L143.381 38.6C145.915 32.2 149.048 27 152.781 23C156.515 19 161.248 17 166.981 17C171.915 17 175.681 18.4 178.281 21.2C180.881 23.9333 182.181 27.5 182.181 31.9C182.181 35.5667 181.215 38.4667 179.281 40.6C177.348 42.7333 174.615 43.8 171.081 43.8C168.815 43.8 166.915 43.1667 165.381 41.9C163.914 40.6333 162.548 39.1667 161.281 37.5C160.081 35.7667 158.848 34.2667 157.581 33C156.381 31.7333 154.948 31.1 153.281 31.1C151.281 31.1 149.581 31.9 148.181 33.5C146.781 35.0333 145.515 37.2333 144.381 40.1L142.581 40.7ZM171.781 69.5C171.781 76.2333 169.881 82.2667 166.081 87.6C162.281 92.9333 157.081 97.1667 150.481 100.3C143.948 103.367 136.548 104.9 128.281 104.9C119.081 104.9 111.115 103.4 104.381 100.4C97.6478 97.4 92.4478 93.4 88.7812 88.4C85.1145 83.4 83.2812 77.9333 83.2812 72C83.2812 65.1333 85.1145 59 88.7812 53.6C92.5145 48.1333 97.8145 43.8 104.681 40.6C111.548 37.4 119.681 35.8 129.081 35.8C138.081 35.8 145.748 37.4 152.081 40.6C158.481 43.7333 163.348 47.8667 166.681 53C170.081 58.1333 171.781 63.6333 171.781 69.5ZM123.081 38.1C120.548 38.3667 118.415 39.8333 116.681 42.5C115.015 45.1 113.848 48.8 113.181 53.6C112.581 58.4 112.648 64.0667 113.381 70.6C114.181 77.4 115.448 83.2 117.181 88C118.981 92.8 121.081 96.4333 123.481 98.9C125.948 101.3 128.514 102.4 131.181 102.2C134.915 101.867 137.714 98.8667 139.581 93.2C141.514 87.4667 141.915 79.6333 140.781 69.7C139.581 59.4333 137.314 51.5333 133.981 46C130.715 40.4667 127.081 37.8333 123.081 38.1Z" fill="#FFFBEB"/>
<path d="M220.816 74.5C220.816 66.0333 222.116 58.9333 224.716 53.2C227.316 47.4667 230.616 43.1333 234.616 40.2C238.682 37.2667 242.916 35.8 247.316 35.8C252.516 35.8 256.482 37.5 259.216 40.9C262.016 44.2333 263.416 49.1667 263.416 55.7C263.416 61.7667 261.982 66.2667 259.116 69.2C256.249 72.1333 252.682 73.6 248.416 73.6C244.416 73.6 241.482 72.5333 239.616 70.4C237.749 68.2 236.716 64.9667 236.516 60.7L236.316 57.3C236.249 55.5 235.882 54.1 235.216 53.1C234.549 52.1 233.382 51.6 231.716 51.6C230.049 51.6 228.482 52.4667 227.016 54.2C225.549 55.8667 224.382 58.4667 223.516 62C222.649 65.4667 222.216 69.9 222.216 75.3L220.816 74.5ZM222.216 37.9V119.7C222.216 120.567 222.449 121.333 222.916 122C223.382 122.6 224.016 123 224.816 123.2L234.616 125C235.016 125.067 235.282 125.167 235.416 125.3C235.549 125.433 235.616 125.6 235.616 125.8C235.616 126 235.516 126.167 235.316 126.3C235.116 126.433 234.849 126.5 234.516 126.5H185.016C184.682 126.5 184.416 126.433 184.216 126.3C184.016 126.1 183.916 125.933 183.916 125.8C183.916 125.6 184.049 125.4 184.316 125.2C184.582 125 184.916 124.867 185.316 124.8L189.816 124C190.682 123.8 191.282 123.467 191.616 123C192.016 122.467 192.216 121.833 192.216 121.1V48C192.216 47.4667 192.082 47.0333 191.816 46.7C191.616 46.3667 191.249 46.2 190.716 46.2H185.116C184.916 46.2 184.716 46.1333 184.516 46C184.316 45.8667 184.216 45.7 184.216 45.5C184.216 45.3 184.316 45.1333 184.516 45C184.716 44.8 184.982 44.6667 185.316 44.6L218.716 36.9C219.249 36.7667 219.682 36.6667 220.016 36.6C220.349 36.5333 220.682 36.5 221.016 36.5C221.482 36.5 221.782 36.6667 221.916 37C222.116 37.2667 222.216 37.5667 222.216 37.9Z" fill="#FFFBEB"/>
<path d="M319.705 117.2V116.1L318.305 117.4V48.7C318.305 45.1 317.505 42.3333 315.905 40.4C314.305 38.4 312.105 37.4 309.305 37.4C306.105 37.4 303.638 38.2667 301.905 40C300.238 41.7333 299.405 43.8667 299.405 46.4V55.7C299.405 59.6333 297.971 63.0333 295.105 65.9C292.238 68.7 288.505 70.1 283.905 70.1C280.771 70.1 278.171 69.2 276.105 67.4C274.105 65.5333 273.105 62.7333 273.105 59C273.105 55.4 274.605 51.8333 277.605 48.3C280.605 44.7 285.071 41.7333 291.005 39.4C296.938 37 304.271 35.8 313.005 35.8C324.871 35.8 333.738 38.2 339.605 43C345.538 47.7333 348.505 54.5 348.505 63.3V114C348.505 115.933 348.871 117.367 349.605 118.3C350.405 119.233 351.338 119.7 352.405 119.7C353.471 119.7 354.471 119.333 355.405 118.6C356.405 117.8 357.038 116.467 357.305 114.6C357.371 114.333 357.438 114.167 357.505 114.1C357.638 113.967 357.738 113.9 357.805 113.9C358.005 113.9 358.138 113.967 358.205 114.1C358.338 114.167 358.405 114.333 358.405 114.6C358.405 116 357.705 117.8 356.305 120C354.971 122.133 352.738 124.067 349.605 125.8C346.538 127.533 342.338 128.4 337.005 128.4C330.871 128.4 326.438 127.333 323.705 125.2C321.038 123 319.705 120.333 319.705 117.2ZM267.805 106.8C267.805 99.1333 270.971 93.0667 277.305 88.6C283.705 84.0667 294.105 81.8 308.505 81.8C312.038 81.8 314.871 82.1667 317.005 82.9C319.205 83.6333 321.238 84.5667 323.105 85.7L322.205 86.5C320.271 85.5 318.371 84.7667 316.505 84.3C314.638 83.8333 312.505 83.6 310.105 83.6C306.105 83.6 303.005 85.2 300.805 88.4C298.605 91.6 297.505 96.3 297.505 102.5C297.505 108.433 298.605 112.833 300.805 115.7C303.005 118.567 305.838 120 309.305 120C311.438 120 313.571 119.4 315.705 118.2C317.905 117 319.671 115.367 321.005 113.3L322.305 114C319.505 118.667 315.538 122.233 310.405 124.7C305.271 127.167 299.738 128.4 293.805 128.4C286.205 128.4 279.971 126.4 275.105 122.4C270.238 118.333 267.805 113.133 267.805 106.8ZM322.505 28.3C319.705 28.3 317.105 27.7 314.705 26.5C312.371 25.2333 310.138 23.8 308.005 22.2C305.938 20.6 303.971 19.2 302.105 18C300.238 16.7333 298.371 16.1 296.505 16.1C294.171 16.1 292.405 17.0667 291.205 19C290.071 20.8667 289.438 23.7667 289.305 27.7C289.305 28.5 289.038 28.9 288.505 28.9C287.905 28.9 287.605 28.5 287.605 27.7C287.605 18.8333 288.838 12.1 291.305 7.5C293.771 2.9 298.005 0.600004 304.005 0.600004C306.871 0.600004 309.471 1.23334 311.805 2.50001C314.205 3.70001 316.438 5.10001 318.505 6.7C320.571 8.30001 322.538 9.73334 324.405 11C326.338 12.2 328.205 12.8 330.005 12.8C332.471 12.8 334.271 11.8667 335.405 10C336.538 8.06667 337.138 5.13334 337.205 1.20001C337.205 0.400003 337.505 0 338.105 0C338.705 0 339.005 0.400003 339.005 1.20001C339.005 10.0667 337.771 16.8 335.305 21.4C332.838 26 328.571 28.3 322.505 28.3Z" fill="#FFFBEB"/>
<path d="M411.812 35.8C420.946 35.8 429.046 37.8 436.112 41.8C443.179 45.7333 448.712 51.2333 452.712 58.3C456.712 65.3 458.712 73.3667 458.712 82.5C458.712 91.5667 456.646 99.5667 452.512 106.5C448.379 113.367 442.679 118.767 435.412 122.7C428.146 126.567 419.812 128.5 410.412 128.5C401.279 128.5 393.179 126.567 386.112 122.7C379.112 118.767 373.612 113.367 369.612 106.5C365.612 99.5667 363.612 91.5667 363.612 82.5C363.612 73.5 365.679 65.5 369.812 58.5C374.012 51.4333 379.712 45.9 386.912 41.9C394.179 37.8333 402.479 35.8 411.812 35.8ZM417.112 126.7C420.379 126.3 422.946 124.367 424.812 120.9C426.746 117.367 427.912 112.233 428.312 105.5C428.779 98.7667 428.346 90.4 427.012 80.4C425.679 70.4 423.979 62.2 421.912 55.8C419.846 49.3333 417.412 44.6333 414.612 41.7C411.879 38.7 408.812 37.4 405.412 37.8C402.146 38.2667 399.546 40.2667 397.612 43.8C395.746 47.3333 394.646 52.4333 394.312 59.1C393.979 65.7667 394.446 74.0667 395.712 84C396.979 93.9333 398.646 102.133 400.712 108.6C402.846 115 405.279 119.7 408.012 122.7C410.812 125.7 413.846 127.033 417.112 126.7Z" fill="#FFFBEB"/>
<path d="M195.071 155.544C197.311 154.072 199.679 153.016 202.175 152.376C204.671 151.736 207.327 151.416 210.143 151.416C220.319 151.416 225.407 156.184 225.407 165.72V186.072C225.407 189.144 226.623 190.68 229.055 190.68C230.143 190.68 231.103 190.488 231.935 190.104L232.031 194.52C230.303 195.48 228.447 195.96 226.463 195.96C221.407 195.96 218.815 193.08 218.687 187.32V187.128C217.343 189.432 215.423 191.48 212.927 193.272C210.495 195.064 207.551 195.96 204.095 195.96C201.279 195.96 198.399 195.096 195.455 193.368C192.575 191.64 191.135 188.504 191.135 183.96C191.135 178.584 193.247 175.064 197.471 173.4C201.759 171.672 206.303 170.808 211.103 170.808C212.383 170.808 213.663 170.84 214.943 170.904C216.287 170.968 217.535 171.064 218.687 171.192V167.352C218.687 164.28 218.015 161.784 216.671 159.864C215.391 157.944 212.831 156.984 208.991 156.984C205.855 156.984 203.103 157.56 200.735 158.712L199.103 166.104L193.535 165.432L195.071 155.544ZM218.687 178.968V175.704C217.471 175.64 216.191 175.544 214.847 175.416C213.503 175.288 212.127 175.224 210.719 175.224C207.519 175.224 204.607 175.736 201.983 176.76C199.423 177.72 198.143 179.864 198.143 183.192C198.143 185.944 199.007 187.832 200.735 188.856C202.463 189.88 204.255 190.392 206.111 190.392C209.055 190.392 211.807 189.368 214.367 187.32C216.991 185.272 218.431 182.488 218.687 178.968Z" fill="#F59E0B"/>
<path d="M279.397 173.592C279.397 180.056 277.477 185.4 273.637 189.624C269.797 193.848 264.581 195.96 257.989 195.96C251.525 195.96 246.437 193.912 242.725 189.816C239.077 185.72 237.253 180.44 237.253 173.976C237.253 167.768 239.045 162.456 242.629 158.04C246.213 153.56 251.461 151.32 258.373 151.32C265.349 151.32 270.597 153.528 274.117 157.944C277.637 162.296 279.397 167.512 279.397 173.592ZM272.293 173.496C272.293 168.632 271.045 164.696 268.549 161.688C266.117 158.616 262.661 157.08 258.181 157.08C253.701 157.08 250.245 158.648 247.813 161.784C245.445 164.92 244.261 168.856 244.261 173.592C244.261 178.264 245.445 182.2 247.813 185.4C250.181 188.6 253.637 190.2 258.181 190.2C262.725 190.2 266.213 188.632 268.645 185.496C271.077 182.296 272.293 178.296 272.293 173.496Z" fill="#F59E0B"/>
<path d="M353.822 172.44C353.822 176.216 353.15 179.928 351.806 183.576C350.526 187.16 348.446 190.136 345.566 192.504C342.75 194.808 339.006 195.96 334.334 195.96C327.87 195.96 323.166 193.56 320.222 188.76V209.976H330.11V215.448H305.918V209.976H313.502V157.752H305.822V152.28H320.222V161.208C321.502 158.648 323.358 156.376 325.79 154.392C328.222 152.408 331.422 151.416 335.39 151.416C340.894 151.416 345.342 153.272 348.734 156.984C352.126 160.696 353.822 165.848 353.822 172.44ZM346.718 173.016C346.718 167.896 345.47 163.992 342.974 161.304C340.478 158.552 337.374 157.176 333.662 157.176C329.822 157.176 326.654 158.712 324.158 161.784C321.662 164.792 320.35 167.928 320.222 171.192V177.528C320.222 181.112 321.47 184.12 323.966 186.552C326.462 188.984 329.47 190.2 332.99 190.2C337.79 190.2 341.278 188.472 343.454 185.016C345.63 181.56 346.718 177.56 346.718 173.016Z" fill="#F59E0B"/>
<path d="M384.715 151.512C387.787 151.512 390.219 152.248 392.011 153.72L393.643 164.472L388.171 165.144L386.539 157.848C385.451 157.464 384.363 157.272 383.275 157.272C380.779 157.272 378.699 158.328 377.035 160.44C375.371 162.488 374.539 165.176 374.539 168.504V189.528H384.427V195H360.331V189.528H367.819V157.752H360.139V152.28H374.155V159.96C374.987 157.592 376.331 155.608 378.187 154.008C380.107 152.344 382.283 151.512 384.715 151.512Z" fill="#F59E0B"/>
<path d="M439.524 182.712C438.948 186.36 437.124 189.496 434.052 192.12C430.98 194.68 426.82 195.96 421.572 195.96C415.556 195.96 410.692 194.072 406.98 190.296C403.268 186.52 401.412 181.176 401.412 174.264C401.412 167.608 403.172 162.136 406.692 157.848C410.212 153.56 414.98 151.416 420.996 151.416C426.884 151.416 431.364 153.272 434.436 156.984C437.508 160.696 439.076 165.08 439.14 170.136C439.14 171.8 438.948 173.496 438.564 175.224H408.516C408.9 185.208 413.412 190.2 422.052 190.2C425.444 190.2 428.1 189.4 430.02 187.8C431.94 186.2 433.22 184.088 433.86 181.464L439.524 182.712ZM432.036 170.232C432.356 167.032 431.588 164.024 429.732 161.208C427.94 158.392 424.964 156.984 420.804 156.984C416.836 156.984 413.924 158.296 412.068 160.92C410.212 163.544 409.06 166.648 408.612 170.232H432.036Z" fill="#F59E0B"/>
<path d="M477.417 207.096C477.417 209.976 476.393 212.024 474.345 213.24C472.297 214.52 469.865 215.16 467.049 215.16C463.209 215.16 460.137 214.2 457.833 212.28L459.465 208.344C461.385 209.816 463.785 210.552 466.665 210.552C469.929 210.552 471.561 209.24 471.561 206.616C471.561 205.016 471.017 203.96 469.929 203.448C468.841 203 467.529 202.776 465.993 202.776H463.113V195.768C457.993 195.256 453.929 193.144 450.921 189.432C447.977 185.656 446.505 180.6 446.505 174.264C446.505 168.376 448.169 163.096 451.497 158.424C454.825 153.752 459.817 151.416 466.473 151.416C469.289 151.416 471.881 151.736 474.249 152.376C476.617 153.016 478.889 154.168 481.065 155.832L482.697 166.104L477.129 166.776L475.497 159.576C472.937 157.976 469.897 157.176 466.377 157.176C461.833 157.176 458.569 158.808 456.585 162.072C454.601 165.336 453.609 169.272 453.609 173.88C453.609 179 454.729 183 456.969 185.88C459.209 188.76 462.441 190.2 466.665 190.2C473.065 190.2 476.905 186.584 478.185 179.352L483.945 180.6C483.433 184.12 481.929 187.448 479.433 190.584C476.937 193.656 473.161 195.416 468.105 195.864V199.608H468.873C471.881 199.608 474.057 200.312 475.401 201.72C476.745 203.192 477.417 204.984 477.417 207.096Z" fill="#F59E0B"/>
<path d="M532.897 173.592C532.897 180.056 530.977 185.4 527.137 189.624C523.297 193.848 518.081 195.96 511.489 195.96C505.025 195.96 499.937 193.912 496.225 189.816C492.577 185.72 490.753 180.44 490.753 173.976C490.753 167.768 492.545 162.456 496.129 158.04C499.713 153.56 504.961 151.32 511.873 151.32C518.849 151.32 524.097 153.528 527.617 157.944C531.137 162.296 532.897 167.512 532.897 173.592ZM525.793 173.496C525.793 168.632 524.545 164.696 522.049 161.688C519.617 158.616 516.161 157.08 511.681 157.08C507.201 157.08 503.745 158.648 501.313 161.784C498.945 164.92 497.761 168.856 497.761 173.592C497.761 178.264 498.945 182.2 501.313 185.4C503.681 188.6 507.137 190.2 511.681 190.2C516.225 190.2 519.713 188.632 522.145 185.496C524.577 182.296 525.793 178.296 525.793 173.496Z" fill="#F59E0B"/>
<path d="M66.4427 76.6476L66.21 90.7577L57.5712 90.6152C60.1076 92.0652 62.3156 94.0219 64.1953 96.4852C66.0749 98.9485 66.9825 102.132 66.9182 106.035C66.8274 111.539 64.8983 115.955 61.1309 119.286C57.3005 122.551 52.0578 124.129 45.4027 124.019C39.7075 123.925 34.4205 122.366 29.5417 119.341C24.6629 116.316 22.281 111.316 22.396 104.341C22.5058 97.6859 25.1761 92.9613 30.4069 90.1672L5.64222 89.7588L5.47125 100.125L0 100.035L0.28178 82.9494L60.8495 83.9483L60.9714 76.5573L66.4427 76.6476ZM47.3006 90.4458L40.4855 90.3334C36.8999 90.4023 33.9666 91.6661 31.6858 94.1248C29.4049 96.5835 28.2365 99.5087 28.1806 102.9C28.1025 107.636 29.7727 111.152 33.1913 113.448C36.611 115.681 40.5605 116.834 45.0399 116.908C50.2872 116.995 54.2747 115.844 57.0024 113.457C59.7312 111.006 61.1262 107.924 61.1874 104.213C61.2508 100.373 59.7672 97.1803 56.7368 94.634C53.6434 92.0226 50.498 90.6265 47.3006 90.4458Z" fill="#F59E0B"/>
<path d="M45.813 29.2775C52.2761 29.384 57.5878 31.3919 61.7479 35.301C65.908 39.2102 67.9337 44.4603 67.825 51.0514C67.7184 57.5145 65.5867 62.568 61.4301 66.212C57.2745 69.792 51.9651 71.5286 45.502 71.4221C39.2949 71.3197 34.0131 69.4403 29.6568 65.784C25.2365 62.1266 23.0834 56.8424 23.1974 49.9313C23.3124 42.9563 25.6066 37.7454 30.0801 34.2987C34.4895 30.8509 39.7338 29.1772 45.813 29.2775ZM45.5999 36.3789C40.7365 36.2987 36.7805 37.4816 33.7318 39.9277C30.6201 42.3087 29.0273 45.7389 28.9534 50.2183C28.8795 54.6977 30.3903 58.1791 33.4858 60.6624C36.5823 63.0818 40.4983 64.3306 45.2336 64.4087C49.905 64.4857 53.86 63.3668 57.0986 61.0519C60.3372 58.737 61.994 55.3078 62.0689 50.7644C62.1438 46.2211 60.6336 42.7077 57.5381 40.2243C54.3786 37.7398 50.3992 36.4581 45.5999 36.3789Z" fill="#F59E0B"/>
</svg>
